<svg preserveAspectRatio="none" width="100%" height="100%" overflow="visible" style="display: block;" viewBox="0 0 4240 4240" fill="none" xmlns="http://www.w3.org/2000/svg">
<g id="Logo">
<path d="M4240 2120C4240 3290.84 3290.84 4240 2120 4240C949.156 4240 0 3290.84 0 2120C0 949.156 949.156 0 2120 0C3290.84 0 4240 949.156 4240 2120Z" fill="#121212"/>
<path d="M692.533 2791.33V3024.53H2056.4V2763.07H1074.13L2056.4 1448.67V1229.6H692.533V1491.07H1667.73L692.533 2791.33Z" fill="var(--fill-0, #E6EB2F)"/>
<path d="M2176.53 1462.8L1780.8 1992.8V2635.87H2056.4V1798.21L2600.53 2784.27H2756L3286 1802V3024.53H3561.6V1229.6H3300.13L2678.27 2395.6L2176.53 1462.8Z" fill="var(--fill-0, #E6EB2F)"/>
</g>
</svg>
