<svg width="511" height="383" viewBox="0 0 511 383" fill="none" xmlns="http://www.w3.org/2000/svg">
<g clip-path="url(#clip0_22_2)">
<path d="M511 0H0V383H511V0Z" fill="#1e1e1e"/>
<path d="M405.866 155H327.671C321.502 155 316.5 160.002 316.5 166.171V216.439C316.5 222.609 321.502 227.61 327.671 227.61H405.866C412.036 227.61 417.037 222.609 417.037 216.439V166.171C417.037 160.002 412.036 155 405.866 155Z" fill="#2a2a2a"/>
<path d="M406.99 171.634H328.511C326.627 171.634 325.098 173.163 325.098 175.046C325.098 176.931 326.627 178.459 328.511 178.459H406.99C408.875 178.459 410.402 176.931 410.402 175.046C410.402 173.163 408.875 171.634 406.99 171.634Z" fill="#4A4A4A"/>
<path d="M381.399 188.695H328.511C326.627 188.695 325.098 190.222 325.098 192.107C325.098 193.992 326.627 195.519 328.511 195.519H381.399C383.284 195.519 384.811 193.992 384.811 192.107C384.811 190.222 383.284 188.695 381.399 188.695Z" fill="#4A4A4A"/>
<path d="M393.341 205.756H328.511C326.627 205.756 325.098 207.283 325.098 209.168C325.098 211.053 326.627 212.58 328.511 212.58H393.341C395.226 212.58 396.753 211.053 396.753 209.168C396.753 207.283 395.226 205.756 393.341 205.756Z" fill="#E6EB2F"/>
<path d="M235.5 192L316.5 193Z" fill="#E6EB2F"/>
<path d="M235.5 192L316.5 193" stroke="#E6EB2F" stroke-width="1.11707" stroke-dasharray="4.47 4.47"/>
<path d="M235.5 180.5L298 107Z" fill="#E6EB2F"/>
<path d="M235.5 180.5L298 107" stroke="#E6EB2F" stroke-width="1.11707" stroke-dasharray="4.47 4.47"/>
<path d="M297.851 103.5C299.425 103.5 300.703 104.777 300.703 106.351C300.703 107.925 299.425 109.203 297.851 109.203C296.277 109.203 295 107.925 295 106.351C295 104.777 296.277 103.5 297.851 103.5Z" fill="#E6EB2F" stroke="#E6EB2F"/>
<path d="M316.851 189.5C318.425 189.5 319.702 190.776 319.702 192.351C319.702 193.925 318.425 195.202 316.851 195.202C315.276 195.202 314 193.925 314 192.351C314 190.776 315.276 189.5 316.851 189.5Z" fill="#E6EB2F" stroke="#E6EB2F"/>
<path d="M362.173 252H307.436C302.501 252 298.5 256.001 298.5 260.937V293.332C298.5 298.267 302.501 302.268 307.436 302.268H362.173C367.108 302.268 371.109 298.267 371.109 293.332V260.937C371.109 256.001 367.108 252 362.173 252Z" fill="#2a2a2a"/>
<path d="M344.5 276.5L328.75 285.593L328.75 267.407L344.5 276.5Z" fill="#6A6A6A"/>
<path d="M298.851 280.703C300.702 280.703 302.202 279.202 302.202 277.351C302.202 275.501 300.702 274 298.851 274C297 274 295.5 275.501 295.5 277.351C295.5 279.202 297 280.703 298.851 280.703Z" fill="#E6EB2F"/>
<path d="M230.5 202.5L299 277.5" stroke="#E6EB2F" stroke-width="1.11707" stroke-dasharray="4.47 4.47"/>
<path d="M227.227 146H169.139C160.501 146 153.5 153.002 153.5 161.639V202.971C153.5 211.608 160.501 218.61 169.139 218.61H227.227C235.864 218.61 242.866 211.608 242.866 202.971V161.639C242.866 153.002 235.864 146 227.227 146Z" fill="#2a2a2a"/>
<path d="M198.139 197.278C206.776 197.278 213.778 190.276 213.778 181.639C213.778 173.002 206.776 166 198.139 166C189.501 166 182.5 173.002 182.5 181.639C182.5 190.276 189.501 197.278 198.139 197.278Z" fill="#E6EB2F"/>
<path d="M205.1 155H191.9C189.469 155 187.5 156.12 187.5 157.5C187.5 158.88 189.469 160 191.9 160H205.1C207.531 160 209.5 158.88 209.5 157.5C209.5 156.12 207.531 155 205.1 155Z" fill="#E6EB2F"/>
<path d="M375.696 76H308.671C302.502 76 297.5 81.0013 297.5 87.1707V126.268C297.5 132.438 302.502 137.439 308.671 137.439H375.696C381.865 137.439 386.866 132.438 386.866 126.268V87.1707C386.866 81.0013 381.865 76 375.696 76Z" fill="#2a2a2a"/>
<path d="M358.5 106.5L333.75 120.789L333.75 92.2106L358.5 106.5Z" fill="#E6EB2F"/>
</g>
<defs>
<clipPath id="clip0_22_2">
<rect width="511" height="383" fill="white"/>
</clipPath>
</defs>
</svg>
