<svg width="511" height="383" viewBox="0 0 511 383" fill="none" xmlns="http://www.w3.org/2000/svg">
<g clip-path="url(#clip0_22_23)">
<path d="M511 0H0V383H511V0Z" fill="black"/>
<path d="M343.01 107H146.405C139.002 107 133 113.002 133 120.405V261.156C133 268.56 139.002 274.561 146.405 274.561H343.01C350.413 274.561 356.415 268.56 356.415 261.156V120.405C356.415 113.002 350.413 107 343.01 107Z" fill="white" fill-opacity="0.05" stroke="#4A4A4A" stroke-width="1.67561"/>
<path d="M343.01 107H146.405C139.002 107 133 113.002 133 120.405C133 127.808 139.002 133.81 146.405 133.81H343.01C350.413 133.81 356.415 127.808 356.415 120.405C356.415 113.002 350.413 107 343.01 107Z" fill="#4A4A4A"/>
<path d="M150.873 124.315C153.032 124.315 154.782 122.564 154.782 120.405C154.782 118.246 153.032 116.495 150.873 116.495C148.713 116.495 146.963 118.246 146.963 120.405C146.963 122.564 148.713 124.315 150.873 124.315Z" fill="#E6EB2F"/>
<path d="M164.278 124.315C166.437 124.315 168.188 122.564 168.188 120.405C168.188 118.246 166.437 116.495 164.278 116.495C162.119 116.495 160.368 118.246 160.368 120.405C160.368 122.564 162.119 124.315 164.278 124.315Z" fill="#121212"/>
<path d="M177.682 124.315C179.842 124.315 181.592 122.564 181.592 120.405C181.592 118.246 179.842 116.495 177.682 116.495C175.523 116.495 173.772 118.246 173.772 120.405C173.772 122.564 175.523 124.315 177.682 124.315Z" fill="#121212"/>
<path d="M308.38 147.215H158.692C156.841 147.215 155.341 148.715 155.341 150.566C155.341 152.417 156.841 153.917 158.692 153.917H308.38C310.231 153.917 311.731 152.417 311.731 150.566C311.731 148.715 310.231 147.215 308.38 147.215Z" fill="#E6EB2F"/>
<path d="M241.356 165.088H158.692C156.841 165.088 155.341 166.588 155.341 168.439C155.341 170.29 156.841 171.79 158.692 171.79H241.356C243.206 171.79 244.707 170.29 244.707 168.439C244.707 166.588 243.206 165.088 241.356 165.088Z" fill="#4A4A4A"/>
<path d="M263.697 182.961H158.692C156.841 182.961 155.341 184.461 155.341 186.312C155.341 188.163 156.841 189.663 158.692 189.663H263.697C265.548 189.663 267.048 188.163 267.048 186.312C267.048 184.461 265.548 182.961 263.697 182.961Z" fill="#4A4A4A"/>
<path d="M252.526 200.834H158.692C156.841 200.834 155.341 202.335 155.341 204.186C155.341 206.037 156.841 207.537 158.692 207.537H252.526C254.377 207.537 255.878 206.037 255.878 204.186C255.878 202.335 254.377 200.834 252.526 200.834Z" fill="#E6EB2F"/>
<path d="M274.868 218.708H158.692C156.841 218.708 155.341 220.208 155.341 222.059C155.341 223.91 156.841 225.41 158.692 225.41H274.868C276.719 225.41 278.219 223.91 278.219 222.059C278.219 220.208 276.719 218.708 274.868 218.708Z" fill="#4A4A4A"/>
<path d="M322.902 252.22C344.495 252.22 362 234.715 362 213.122C362 191.529 344.495 174.024 322.902 174.024C301.309 174.024 283.805 191.529 283.805 213.122C283.805 234.715 301.309 252.22 322.902 252.22Z" fill="white" fill-opacity="0.03" stroke="#E6EB2F" stroke-width="3.35122"/>
<path d="M350.829 241.049L378.756 274.561" stroke="#E6EB2F" stroke-width="4.4683" stroke-linecap="round"/>
</g>
<defs>
<clipPath id="clip0_22_23">
<rect width="511" height="383" fill="white"/>
</clipPath>
</defs>
</svg>
