<svg width="511" height="383" viewBox="0 0 511 383" fill="none" xmlns="http://www.w3.org/2000/svg">
<g clip-path="url(#clip0_22_61)">
<path d="M511 0H0V383H511V0Z" fill="black"/>
<path d="M400.59 76.317H111.337C102.032 76.317 94.4873 83.8609 94.4873 93.1667V291.15C94.4873 300.457 102.032 308 111.337 308H400.59C409.897 308 417.44 300.457 417.44 291.15V93.1667C417.44 83.8609 409.897 76.317 400.59 76.317Z" fill="#121212"/>
<path d="M400.59 76.317H111.337C102.032 76.317 94.4873 83.2322 94.4873 91.7626C94.4873 100.293 102.032 107.208 111.337 107.208H400.59C409.897 107.208 417.44 100.293 417.44 91.7626C417.44 83.2322 409.897 76.317 400.59 76.317Z" fill="#4A4A4A"/>
<path d="M116.953 95.975C119.28 95.975 121.165 94.089 121.165 91.7624C121.165 89.436 119.28 87.55 116.953 87.55C114.627 87.55 112.741 89.436 112.741 91.7624C112.741 94.089 114.627 95.975 116.953 95.975Z" fill="#E6EB2F"/>
<path d="M132.399 95.975C134.726 95.975 136.611 94.089 136.611 91.7624C136.611 89.436 134.726 87.55 132.399 87.55C130.072 87.55 128.187 89.436 128.187 91.7624C128.187 94.089 130.072 95.975 132.399 95.975Z" fill="#121212"/>
<path d="M147.845 95.975C150.171 95.975 152.057 94.089 152.057 91.7624C152.057 89.436 150.171 87.55 147.845 87.55C145.518 87.55 143.633 89.436 143.633 91.7624C143.633 94.089 145.518 95.975 147.845 95.975Z" fill="#121212"/>
<path d="M306.512 119.845H119.761C115.108 119.845 111.336 123.617 111.336 128.269V230.772C111.336 235.424 115.108 239.197 119.761 239.197H306.512C311.165 239.197 314.937 235.424 314.937 230.772V128.269C314.937 123.617 311.165 119.845 306.512 119.845Z" fill="#4A4A4A"/>
<path d="M203.376 168.077L224.438 179.309L203.376 190.543V168.077Z" fill="#E6EB2F"/>
<path d="M394.973 251.834H116.953C113.851 251.834 111.336 254.35 111.336 257.451C111.336 260.553 113.851 263.068 116.953 263.068H394.973C398.075 263.068 400.59 260.553 400.59 257.451C400.59 254.35 398.075 251.834 394.973 251.834Z" fill="white" fill-opacity="0.05"/>
<path d="M288.259 251.834H116.953C113.851 251.834 111.336 254.35 111.336 257.451C111.336 260.553 113.851 263.068 116.953 263.068H288.259C291.36 263.068 293.875 260.553 293.875 257.451C293.875 254.35 291.36 251.834 288.259 251.834Z" fill="#E6EB2F" fill-opacity="0.2"/>
<path d="M293.875 264.472C297.753 264.472 300.895 261.328 300.895 257.45C300.895 253.574 297.753 250.43 293.875 250.43C289.997 250.43 286.854 253.574 286.854 257.45C286.854 261.328 289.997 264.472 293.875 264.472Z" fill="#E6EB2F"/>
<path d="M394.974 119.845H333.192C330.09 119.845 327.576 122.359 327.576 125.461V233.58C327.576 236.683 330.09 239.197 333.192 239.197H394.974C398.076 239.197 400.59 236.683 400.59 233.58V125.461C400.59 122.359 398.076 119.845 394.974 119.845Z" fill="#212121"/>
<path d="M385.145 133.887H343.02C340.695 133.887 338.808 135.772 338.808 138.099V157.757C338.808 160.083 340.695 161.969 343.02 161.969H385.145C387.471 161.969 389.357 160.083 389.357 157.757V138.099C389.357 135.772 387.471 133.887 385.145 133.887Z" fill="#121212"/>
<path d="M385.145 170.394H343.02C340.695 170.394 338.808 172.28 338.808 174.607V194.265C338.808 196.591 340.695 198.477 343.02 198.477H385.145C387.471 198.477 389.357 196.591 389.357 194.265V174.607C389.357 172.28 387.471 170.394 385.145 170.394Z" fill="#E6EB2F"/>
<path d="M385.145 206.902H343.02C340.695 206.902 338.808 208.788 338.808 211.114V223.752C338.808 226.078 340.695 227.964 343.02 227.964H385.145C387.471 227.964 389.357 226.078 389.357 223.752V211.114C389.357 208.788 387.471 206.902 385.145 206.902Z" fill="#121212"/>
<path d="M261.197 276.177L282.259 287.411L261.197 298.644V276.177Z" fill="white" fill-opacity="0.15"/>
<path d="M248.418 277.434H242.552C241.742 277.434 241.085 278.63 241.085 280.105V296.132C241.085 297.607 241.742 298.803 242.552 298.803H248.418C249.228 298.803 249.884 297.607 249.884 296.132V280.105C249.884 278.63 249.228 277.434 248.418 277.434Z" fill="white" fill-opacity="0.1"/>
<path d="M237.105 277.434H231.239C230.429 277.434 229.772 278.63 229.772 280.105V296.132C229.772 297.607 230.429 298.803 231.239 298.803H237.105C237.915 298.803 238.571 297.607 238.571 296.132V280.105C238.571 278.63 237.915 277.434 237.105 277.434Z" fill="white" fill-opacity="0.1"/>
</g>
<defs>
<clipPath id="clip0_22_61">
<rect width="511" height="383" fill="white"/>
</clipPath>
</defs>
</svg>
