<svg width="511" height="383" viewBox="0 0 511 383" fill="none" xmlns="http://www.w3.org/2000/svg">
<g clip-path="url(#clip0_22_38)">
<path d="M511 0H0V383H511V0Z" fill="black"/>
<path d="M323.965 82.4463H187.816C180.297 82.4463 174.201 88.5415 174.201 96.0616V286.67C174.201 294.19 180.297 300.286 187.816 300.286H323.965C331.485 300.286 337.58 294.19 337.58 286.67V96.0616C337.58 88.5415 331.485 82.4463 323.965 82.4463Z" fill="#121212"/>
<path d="M311.031 116.484H202.111C200.232 116.484 198.708 118.007 198.708 119.888C198.708 121.767 200.232 123.291 202.111 123.291H311.031C312.91 123.291 314.435 121.767 314.435 119.888C314.435 118.007 312.91 116.484 311.031 116.484Z" fill="#E6EB2F"/>
<path d="M284.482 135.545H201.431C199.927 135.545 198.708 136.764 198.708 138.268C198.708 139.772 199.927 140.99 201.431 140.99H284.482C285.986 140.99 287.205 139.772 287.205 138.268C287.205 136.764 285.986 135.545 284.482 135.545Z" fill="#4A4A4A"/>
<path d="M298.097 151.883H201.431C199.927 151.883 198.708 153.102 198.708 154.606C198.708 156.11 199.927 157.328 201.431 157.328H298.097C299.601 157.328 300.82 156.11 300.82 154.606C300.82 153.102 299.601 151.883 298.097 151.883Z" fill="#4A4A4A"/>
<path d="M264.06 168.221H201.431C199.927 168.221 198.708 169.44 198.708 170.944C198.708 172.448 199.927 173.666 201.431 173.666H264.06C265.564 173.666 266.782 172.448 266.782 170.944C266.782 169.44 265.564 168.221 264.06 168.221Z" fill="#4A4A4A"/>
<path d="M311.031 190.005H202.111C200.232 190.005 198.708 191.528 198.708 193.409C198.708 195.288 200.232 196.812 202.111 196.812H311.031C312.91 196.812 314.435 195.288 314.435 193.409C314.435 191.528 312.91 190.005 311.031 190.005Z" fill="#E6EB2F"/>
<path d="M277.675 209.065H201.431C199.927 209.065 198.708 210.284 198.708 211.788C198.708 213.292 199.927 214.511 201.431 214.511H277.675C279.179 214.511 280.398 213.292 280.398 211.788C280.398 210.284 279.179 209.065 277.675 209.065Z" fill="#4A4A4A"/>
<path d="M291.29 225.404H201.431C199.927 225.404 198.708 226.622 198.708 228.126C198.708 229.63 199.927 230.849 201.431 230.849H291.29C292.793 230.849 294.013 229.63 294.013 228.126C294.013 226.622 292.793 225.404 291.29 225.404Z" fill="#4A4A4A"/>
<path d="M257.253 241.742H201.431C199.927 241.742 198.708 242.96 198.708 244.464C198.708 245.968 199.927 247.187 201.431 247.187H257.253C258.757 247.187 259.975 245.968 259.975 244.464C259.975 242.96 258.757 241.742 257.253 241.742Z" fill="#4A4A4A"/>
<path d="M270.867 263.525H201.431C199.927 263.525 198.708 264.744 198.708 266.248C198.708 267.752 199.927 268.971 201.431 268.971H270.867C272.371 268.971 273.591 267.752 273.591 266.248C273.591 264.744 272.371 263.525 270.867 263.525Z" fill="#4A4A4A"/>
<g opacity="0.8">
<path d="M136.079 143.714H76.1735C70.1574 143.714 65.281 148.591 65.281 154.606V241.742C65.281 247.757 70.1574 252.633 76.1735 252.633H136.079C142.094 252.633 146.97 247.757 146.97 241.742V154.606C146.97 148.591 142.094 143.714 136.079 143.714Z" fill="#121212"/>
<path d="M128.591 168.221H83.6619C82.5332 168.221 81.6191 169.135 81.6191 170.263C81.6191 171.391 82.5332 172.305 83.6619 172.305H128.591C129.718 172.305 130.633 171.391 130.633 170.263C130.633 169.135 129.718 168.221 128.591 168.221Z" fill="#4A4A4A"/>
<path d="M117.698 180.475H83.6619C82.5332 180.475 81.6191 181.389 81.6191 182.516C81.6191 183.645 82.5332 184.559 83.6619 184.559H117.698C118.827 184.559 119.741 183.645 119.741 182.516C119.741 181.389 118.827 180.475 117.698 180.475Z" fill="#E6EB2F"/>
<path d="M123.145 192.727H83.6619C82.5332 192.727 81.6191 193.642 81.6191 194.77C81.6191 195.898 82.5332 196.812 83.6619 196.812H123.145C124.272 196.812 125.187 195.898 125.187 194.77C125.187 193.642 124.272 192.727 123.145 192.727Z" fill="#4A4A4A"/>
<path d="M112.253 204.981H83.6619C82.5332 204.981 81.6191 205.896 81.6191 207.024C81.6191 208.152 82.5332 209.066 83.6619 209.066H112.253C113.38 209.066 114.295 208.152 114.295 207.024C114.295 205.896 113.38 204.981 112.253 204.981Z" fill="#4A4A4A"/>
</g>
<g opacity="0.8">
<path d="M428.49 152H375.391C369.376 152 364.5 156.876 364.5 162.892V236.413C364.5 242.428 369.376 247.304 375.391 247.304H428.49C434.506 247.304 439.382 242.428 439.382 236.413V162.892C439.382 156.876 434.506 152 428.49 152Z" fill="#121212"/>
<path d="M422.363 173.784H382.879C381.752 173.784 380.838 174.698 380.838 175.827C380.838 176.954 381.752 177.868 382.879 177.868H422.363C423.491 177.868 424.405 176.954 424.405 175.827C424.405 174.698 423.491 173.784 422.363 173.784Z" fill="#4A4A4A"/>
<path d="M411.471 186.038H382.879C381.752 186.038 380.838 186.952 380.838 188.079C380.838 189.208 381.752 190.122 382.879 190.122H411.471C412.599 190.122 413.513 189.208 413.513 188.079C413.513 186.952 412.599 186.038 411.471 186.038Z" fill="#E6EB2F"/>
<path d="M416.917 198.29H382.879C381.752 198.29 380.838 199.205 380.838 200.333C380.838 201.461 381.752 202.376 382.879 202.376H416.917C418.046 202.376 418.96 201.461 418.96 200.333C418.96 199.205 418.046 198.29 416.917 198.29Z" fill="#4A4A4A"/>
</g>
</g>
<defs>
<clipPath id="clip0_22_38">
<rect width="511" height="383" fill="white"/>
</clipPath>
</defs>
</svg>
