<svg width="511" height="383" viewBox="-90 -65 691 513" fill="none" xmlns="http://www.w3.org/2000/svg">
<rect x="-90" y="-65" width="691" height="513" fill="#1e1e1e"/>
<path d="M403.361 70.7586C411.783 67.2994 421.445 69.0288 428.146 75.1945C434.842 81.3597 437.366 90.8464 434.621 99.5262C431.871 108.206 424.344 114.509 415.318 115.694C413.246 115.965 411.15 115.959 409.082 115.675C400.065 114.439 392.579 108.095 389.879 99.4034C387.179 90.7109 389.752 81.2414 396.48 75.1123C398.503 73.2709 400.828 71.7976 403.361 70.7586Z" fill="#E6EB2F"/>
<path d="M408.035 71.9593C413.228 71.6342 416.831 71.4378 421.73 73.9434C426.823 76.5307 430.607 81.1245 432.17 86.6188C435.804 99.5249 427.993 110.041 415.485 113.085C412.555 112.018 412.672 112.542 409.769 112.553C401.759 112.583 394.616 106.104 392.435 98.8377C390.769 93.3904 391.36 87.5015 394.069 82.4922C397.275 76.6368 401.818 73.6846 408.035 71.9593Z" fill="#424311"/>
<path d="M377.854 142.024C368.788 132.275 361.68 122.399 356.357 109.982C355.246 107.388 349.485 98.0169 357.418 98.1415C358.917 98.165 360.452 100.787 360.962 101.964C367.203 117.631 376.089 131.673 389.585 142.305L391.084 143.311C392.448 142.758 404.079 143.017 406.391 143.031C406.621 146.05 406.919 148.82 406.703 151.846C406.752 152.458 406.712 153.032 406.947 153.524C407.082 155.595 407.249 157.624 407.24 159.7C392.981 153.972 390.705 152.832 378.789 143.005L377.854 142.024Z" fill="#E6EB2F"/>
<path d="M391.084 143.311C392.448 142.758 404.079 143.017 406.391 143.031C406.621 146.05 406.919 148.82 406.702 151.846C400.408 149.144 396.611 147.266 391.084 143.311Z" fill="#1C1C1C"/>
<path d="M409.082 115.675C411.15 115.959 413.245 115.965 415.318 115.694C415.3 116.817 415.363 121.238 415.033 121.96L415.006 123.375C412.459 122.761 412.035 122.81 409.57 123.464L409.236 122.14C409.29 120.023 409.159 117.801 409.082 115.675Z" fill="#E6EB2F"/>
<path d="M415.033 121.96C430.887 123.396 443.164 125.204 449.833 141.623C449.91 142.076 450.126 143.769 450.28 144.034C453.057 164.762 449.517 220.842 436.066 238.073C432.91 242.118 429.279 243.852 424.782 245.794C439.877 254.933 441.38 275.627 441.109 291.602C435.167 291.769 429.243 291.584 423.405 291.737C423.224 295.607 423.057 304.669 423.576 308.385C422.484 310.115 422.28 310.083 420.082 310.237C415.241 308.638 360.61 309.501 352.112 309.763C347.913 312.043 347.245 311.961 343.014 309.821C333.69 309.32 323.58 309.519 314.175 309.469C308.652 309.437 298.466 309.203 293.454 310.101C292.063 310.368 291.562 310.241 290.14 310.173L290.018 308.051C290.505 303.703 290.243 296.429 290.198 291.873C284.414 291.259 269.446 291.733 263.106 291.773C263.03 251.307 299.27 243.879 332.972 243.026C335.252 242.967 338.49 243.478 340.585 242.516L341.226 239.707C342.003 236.506 343.709 234.406 347.141 234.199C354.104 233.779 361.148 233.95 368.128 233.955L410.983 233.986C410.333 210.967 408.838 182.688 407.24 159.7C407.249 157.624 407.082 155.595 406.946 153.524C406.712 153.032 406.752 152.458 406.703 151.846C406.919 148.82 406.621 146.05 406.391 143.031L406.373 141.168C406.192 136.102 405.091 130.371 406.784 125.716L409.331 123.817L409.57 123.464C412.035 122.81 412.46 122.761 415.006 123.375L415.033 121.96Z" fill="#4A4A4A"/>
<path d="M263.106 291.773C263.03 251.307 299.27 243.879 332.972 243.026C335.252 242.967 338.49 243.477 340.585 242.516L341.226 239.707L341.104 242.999L341.154 245.433C343.655 245.442 352.641 245.04 354.09 246.363C353.521 257.177 353.598 277.92 354.013 288.992L353.955 289.294L353.896 291.471L353.982 291.76C353.977 296.076 354.198 304.037 353.395 307.997L352.641 308.932L352.112 309.762C347.913 312.043 347.245 311.961 343.014 309.821C333.69 309.32 323.58 309.519 314.175 309.469C308.652 309.437 298.466 309.202 293.454 310.101C292.063 310.367 291.562 310.241 290.14 310.173L290.018 308.051C290.505 303.703 290.243 296.429 290.198 291.873C284.414 291.259 269.446 291.733 263.106 291.773Z" fill="#4A4A4A"/>
<path d="M290.307 288.933C291.341 288.911 292.7 288.834 293.702 288.897C307.619 289.575 326.831 289.254 341.023 289.046L341.054 291.746C341.091 296.262 340.982 303.003 341.52 307.257L341.845 308.209L343.014 309.821C333.69 309.32 323.58 309.519 314.175 309.469C308.653 309.437 298.466 309.203 293.454 310.101C292.063 310.368 291.562 310.241 290.14 310.173L290.018 308.051C290.505 303.703 290.244 296.429 290.198 291.873L290.28 291.566L290.307 288.933Z" fill="#1C1C1C"/>
<path d="M293.702 288.897C307.618 289.575 326.831 289.254 341.023 289.046L341.054 291.746C325.345 291.661 309.637 291.665 293.928 291.76L293.874 291.453L293.702 288.897Z" fill="#4A4A4A"/>
<path d="M290.307 288.933C291.341 288.911 292.7 288.834 293.702 288.897L293.874 291.453L293.928 291.76C293.802 295.684 293.463 304.71 294.176 308.358L293.454 310.101C292.063 310.368 291.562 310.241 290.14 310.173L290.018 308.051C290.505 303.703 290.244 296.429 290.198 291.873L290.28 291.566L290.307 288.933Z" fill="#E6EB2F"/>
<path d="M290.307 288.933C291.341 288.911 292.7 288.834 293.702 288.897L293.874 291.453C292.357 291.85 291.819 291.706 290.28 291.566L290.307 288.933Z" fill="#E6EB2F"/>
<path d="M341.154 245.433C343.655 245.442 352.641 245.04 354.09 246.363C353.521 257.177 353.598 277.92 354.014 288.992L353.955 289.294L353.896 291.471L353.982 291.76C353.977 296.076 354.199 304.037 353.395 307.997L352.641 308.932L352.113 309.762C347.913 312.043 347.245 311.961 343.014 309.821L341.845 308.209L341.52 307.256C340.982 303.003 341.091 296.262 341.055 291.746L341.023 289.046C341.443 286.847 341.298 277.839 341.294 275.234C341.312 265.3 341.267 255.366 341.154 245.433Z" fill="#E6EB2F"/>
<path d="M263.106 291.773C263.03 251.307 299.27 243.879 332.972 243.026C335.252 242.967 338.49 243.477 340.585 242.516L341.226 239.707L341.104 242.999L341.154 245.433C341.267 255.366 341.312 265.3 341.294 275.234C341.298 277.839 341.443 286.847 341.023 289.046C340.598 285.687 340.806 277.279 340.806 273.531L340.802 245.401C309.528 244.886 267.771 250.079 265.662 289.087C271.645 289.109 284.83 289.529 290.307 288.933L290.28 291.566L290.198 291.873C284.414 291.259 269.446 291.733 263.106 291.773Z" fill="#4A4A4A"/>
<path d="M354.091 246.363C356.944 246.873 375.006 246.823 379.137 246.702C391.956 246.327 407.249 247.27 419.811 246.589C437.1 251.027 437.371 275.229 438.888 289.141C433.926 289.132 428.106 289.267 423.216 288.956L423.356 291.381L423.405 291.737C423.225 295.607 423.058 304.669 423.577 308.385C422.484 310.115 422.281 310.083 420.082 310.237C415.242 308.638 360.611 309.501 352.113 309.763L352.641 308.932L353.395 307.997C354.199 304.037 353.978 296.077 353.982 291.76L353.896 291.471L353.955 289.295L354.014 288.992C353.598 277.921 353.522 257.177 354.091 246.363Z" fill="#4A4A4A"/>
<path d="M354.014 288.992C372.454 289.647 391.342 288.762 409.828 289.1C413.056 289.159 416.772 289.159 419.974 288.924C420.962 288.929 422.254 288.897 423.216 288.956L423.356 291.381L423.405 291.737C423.225 295.607 423.058 304.669 423.577 308.385C422.484 310.115 422.281 310.083 420.082 310.237C415.242 308.638 360.611 309.501 352.113 309.763L352.641 308.932L353.395 307.997C354.199 304.037 353.978 296.077 353.982 291.76L353.896 291.471L353.955 289.295L354.014 288.992Z" fill="#1C1C1C"/>
<path d="M354.013 288.992C372.454 289.647 391.342 288.762 409.827 289.1C413.056 289.159 416.772 289.159 419.973 288.924L419.698 290.378L419.449 291.656C412.938 291.981 403.93 291.697 397.266 291.692L353.982 291.76L353.896 291.471L353.955 289.295L354.013 288.992Z" fill="#4A4A4A"/>
<path d="M419.974 288.924C420.963 288.929 422.254 288.897 423.216 288.956L423.356 291.381L423.405 291.737C423.225 295.607 423.058 304.669 423.577 308.385C422.484 310.115 422.281 310.083 420.082 310.237L419.369 308.25C420.096 305.83 419.829 294.474 419.45 291.656L419.698 290.378L419.974 288.924Z" fill="#E6EB2F"/>
<path d="M419.973 288.924C420.962 288.929 422.253 288.897 423.215 288.956L423.355 291.381C421.237 291.963 420.709 292.406 419.698 290.378L419.973 288.924Z" fill="#E6EB2F"/>
<path d="M409.57 123.464C412.036 122.81 412.46 122.761 415.007 123.376L415.413 123.863L417.815 125.947C419.143 129.77 419.147 137.322 419.36 141.634L419.382 142.96L423.997 235.102L423.92 242.764C422.448 244.963 422.2 245.334 419.811 246.589C407.249 247.271 391.956 246.327 379.137 246.702C375.006 246.824 356.944 246.873 354.091 246.363C352.641 245.04 343.656 245.442 341.154 245.433L341.104 242.999L341.226 239.707C342.003 236.506 343.71 234.406 347.141 234.199C354.104 233.779 361.148 233.95 368.129 233.955L410.984 233.986C410.333 210.967 408.839 182.688 407.24 159.7C407.249 157.624 407.082 155.595 406.947 153.524C406.712 153.032 406.753 152.458 406.703 151.846C406.92 148.82 406.622 146.051 406.392 143.031L406.373 141.168C406.193 136.102 405.091 130.372 406.784 125.716L409.331 123.818L409.57 123.464Z" fill="#E6EB2F"/>
<path d="M341.104 242.999L398.011 243.058C405.1 243.058 412.117 243.049 419.202 243.301C420.926 243.365 420.678 241.933 423.92 242.764C422.448 244.963 422.2 245.333 419.811 246.589C407.249 247.27 391.956 246.327 379.137 246.701C375.006 246.823 356.944 246.873 354.091 246.363C352.641 245.04 343.656 245.442 341.154 245.433L341.104 242.999Z" fill="#E6EB2F"/>
<path d="M406.946 153.524L407.276 152.314C410.54 151.265 417.481 155.414 415.805 159.541C413.033 161.441 410.283 160.463 407.24 159.7C407.249 157.624 407.082 155.595 406.946 153.524Z" fill="#E6EB2F"/>
<path d="M409.57 123.464C412.035 122.81 412.46 122.761 415.006 123.376L415.413 123.863L415.06 125.73C415.088 128.542 415.471 130.626 412.573 132.009C408.888 131.431 409.43 128.712 409.457 125.728L409.331 123.818L409.57 123.464Z" fill="#E6EB2F"/>
<path d="M409.57 123.464C412.035 122.81 412.46 122.761 415.006 123.376L415.413 123.863L415.06 125.73L409.457 125.728L409.331 123.818L409.57 123.464Z" fill="#E6EB2F"/>
<path d="M415.033 121.96C430.887 123.396 443.164 125.204 449.833 141.623C449.91 142.076 450.127 143.769 450.28 144.034C453.057 164.762 449.517 220.842 436.066 238.073C432.91 242.118 429.279 243.852 424.782 245.794C439.877 254.933 441.38 275.627 441.109 291.602C435.167 291.769 429.243 291.584 423.405 291.737L423.355 291.381L423.215 288.956C428.105 289.267 433.926 289.132 438.888 289.141C437.371 275.229 437.1 251.027 419.811 246.589C422.199 245.333 422.448 244.963 423.92 242.764L423.996 235.102C424.57 238.055 424.443 239.54 424.276 242.453C431.469 238.944 434.598 236.14 437.669 228.568C445.471 209.324 446.496 187.384 447.264 166.867C447.512 160.234 448.18 148.576 445.905 142.757L445.471 141.081C442.979 142.278 422.439 141.99 419.359 141.634C419.147 137.322 419.142 129.77 417.815 125.946L415.413 123.863L415.006 123.375L415.033 121.96Z" fill="#4A4A4A"/>
<path d="M417.815 125.947C426.534 126.715 435.89 128.382 441.9 135.412C443.354 137.122 444.555 139.031 445.471 141.081C442.979 142.278 422.439 141.99 419.359 141.634C419.147 137.322 419.142 129.77 417.815 125.947Z" fill="#4A4A4A"/>
<path d="M72.117 113.731L136.29 113.722L156.534 113.723C160.921 113.723 171.129 113.137 174.459 115.567C180.351 119.806 179.944 128.824 179.208 135.427C181.637 136.032 190.949 135.745 193.832 135.693C193.486 143.939 193.697 152.303 193.672 160.562C193.666 162.533 193.69 164.823 193.879 166.767C190.751 166.72 182.191 166.503 179.265 166.944C179.433 169.712 179.444 172.444 179.412 175.21C179.313 183.733 175.898 188.349 166.962 188.541C156.451 188.764 145.883 188.495 135.363 188.555C133.148 188.562 125.269 188.401 123.509 188.757C123.559 188.37 123.875 187.263 123.988 186.823C125.307 186.526 130.774 186.61 132.41 186.613L152.694 186.666C177.563 186.767 177.265 187.63 177.229 163.247C177.181 154.07 177.184 144.893 177.238 135.716C177.094 131.862 177.533 127.481 176.993 123.663C176.863 122.743 175.753 120.049 175.376 118.955C173.449 117.546 172.195 116.585 169.732 116.246C164.16 115.476 157.391 115.789 151.714 115.794C140.521 115.846 129.328 115.839 118.135 115.776C107.068 115.855 96.0006 115.862 84.9333 115.798C82.1099 115.794 79.0103 115.838 76.211 115.791C69.0555 115.67 62.1042 115.793 61.4118 124.717C61.0637 129.202 61.3099 133.809 61.2966 138.327C61.4048 151.081 61.1391 163.851 61.3507 176.603C61.3759 178.111 61.7345 179.899 62.041 181.383C64.4112 184.421 65.8788 186.044 69.8946 186.341C76.0029 186.788 82.9126 186.771 89.0545 186.666C96.9776 186.53 105.545 186.886 113.376 186.603L113.694 188.757C111.149 188.415 104.592 188.565 101.752 188.572L79.8626 188.607C69.3083 188.621 59.7487 189.889 59.1957 176.226C58.807 159.145 59.0417 140.319 59.5113 123.178C59.704 116.142 65.7405 113.903 72.117 113.731Z" fill="#E6EB2F"/>
<path d="M179.393 137.564C183.515 137.602 187.761 137.53 191.895 137.512L191.818 164.631L179.414 164.63C179.504 155.67 179.403 146.537 179.393 137.564Z" fill="#424311"/>
<path d="M158.296 125.811C159.556 125.425 160.927 125.759 161.869 126.681C162.812 127.603 163.174 128.967 162.815 130.236C162.455 131.504 161.431 132.475 160.145 132.766C158.257 133.193 156.368 132.05 155.871 130.179C155.373 128.308 156.444 126.378 158.296 125.811Z" fill="#E6E52F"/>
<path d="M112.91 188.219C116.92 180.471 122.484 181.59 126.632 188.503C126.487 189.072 126.078 190.504 126.013 191.005C125.149 193.127 124.994 193.24 123.469 195.019L142.053 266.239C145.658 279.979 149.19 294.383 153.044 308.006C153.203 308.471 153.627 309.871 153.865 310.191C154.043 312.011 154.069 312.697 152.99 314.106C149.801 315.127 149.089 311.88 148.442 309.573C139.795 309.55 130.574 309.37 121.973 309.649C121.817 312.386 122.002 314.517 118.409 314.395C117.359 313.203 117.706 313.88 117.403 312.259C117.146 311.049 117.023 310.733 116.571 309.573C112.884 309.144 95.044 309.532 90.5923 309.528C89.9886 312.006 89.5669 314.932 86.2689 314.106C84.8629 312.449 85.1839 311.83 85.4237 309.821L86.0829 307.997C96.4681 271.057 105.99 232.103 115.796 194.847C114.28 193.267 114.122 193.041 113.321 191.005L112.91 188.219Z" fill="#E6EB2F"/>
<path d="M117.198 208.028C117.798 240.055 116.694 272.728 117.353 304.719C117.331 307.202 117.252 309.794 117.403 312.259C117.147 311.049 117.023 310.733 116.571 309.573C112.884 309.144 95.0441 309.532 90.5924 309.528L91.0403 308.047C93.8629 298.732 96.6421 286.45 99.1602 276.819L117.198 208.028Z" fill="#1C1C1C"/>
<path d="M121.957 307.957C121.749 302.728 121.748 296.758 121.881 291.543C122.576 264.108 120.854 235.666 122.061 208.326L147.915 307.234L148.442 309.573C139.795 309.55 130.574 309.37 121.973 309.65L121.957 307.957Z" fill="#1C1C1C"/>
<path d="M112.91 188.219C116.92 180.471 122.484 181.59 126.632 188.503C126.487 189.072 126.078 190.504 126.013 191.005C124.171 191.262 123.906 190.946 122.984 192.007C123.126 192.928 123.261 193.723 123.142 194.653L122.412 195.127L122.158 191.091C120.904 191.086 119.651 191.05 118.399 190.982C117.133 189.912 117.527 190.386 117.191 188.354L116.703 188.372C115.344 188.165 114.282 188.223 112.91 188.219Z" fill="#E6EB2F"/>
<path d="M117.191 188.355C119.178 187.23 118.352 187.37 120.518 187.402C122.062 188.404 121.462 187.754 122.295 189.501L122.158 191.091C120.904 191.086 119.651 191.05 118.399 190.982C117.132 189.912 117.527 190.386 117.191 188.355Z" fill="#E6E52F"/>
<path d="M112.91 188.219C114.282 188.223 115.344 188.165 116.703 188.372L117.191 188.354C117.527 190.386 117.133 189.912 118.399 190.982C119.651 191.05 120.904 191.086 122.158 191.091L122.412 195.127L121.918 195.412C121.899 199.313 121.972 203.648 121.742 207.508C121.129 204.903 120.512 201.747 119.538 199.304L117.28 197.819C116.623 195.421 117.47 196.238 115.796 194.847C114.28 193.267 114.122 193.041 113.321 191.005L112.91 188.219Z" fill="#E6EB2F"/>
<path d="M117.191 188.354C117.527 190.386 117.133 189.912 118.399 190.982C119.651 191.05 120.904 191.086 122.158 191.091L122.412 195.127L121.918 195.412C119.088 196.134 121.619 196.085 119.288 196.789C117.264 195.444 116.793 190.689 116.703 188.373L117.191 188.354Z" fill="#E6EB2F"/>
<path d="M117.28 197.819L119.538 199.304L117.233 206.673L117.28 197.819Z" fill="#E6EB2F"/>
</svg>
