<svg width="511" height="383" viewBox="0 0 511 383" fill="none" xmlns="http://www.w3.org/2000/svg">
<g clip-path="url(#clip0_22_93)">
<path d="M511 0H0V383H511V0Z" fill="#1e1e1e"/>
<path d="M128.954 64.0856C130.399 63.8901 136.128 64.0022 137.878 64.0047L157.1 64.0344L221.407 64.016L330.34 64.0165L364.968 64.0158C370.863 64.0143 377.276 63.827 383.086 64.0897C392.471 64.5142 401.97 73.1753 403.503 82.3896C404.322 87.3298 404.131 92.5205 404.124 97.4752V117.306L404.121 185.19L404.124 262.725V286.825C404.124 295.886 405.265 304.06 399.036 311.575C394.555 316.979 389.866 319.544 382.9 320.312C380.739 320.793 372.616 320.479 370.037 320.477L345.306 320.455L265.105 320.457H173.554L144.923 320.479C139.732 320.481 134.534 320.576 129.354 320.341C118.434 319.846 108.914 310.374 107.939 299.577C107.587 295.688 107.752 291.272 107.761 287.339L107.779 267.066L107.779 199.174L107.774 123.057L107.768 98.9515C107.769 89.5179 106.62 80.3618 112.993 72.5611C116.969 67.7189 122.716 64.6672 128.954 64.0856Z" fill="#2a2a2a"/>
<path d="M245.741 97.9378C249.555 97.591 254.941 97.7551 258.854 97.7599L280.963 97.7659L338.645 97.7611C347.368 97.7604 356.509 97.9417 365.181 97.7918L365.195 152.629C365.198 160.86 365.362 169.62 365.241 177.81C363.75 177.719 362.181 177.534 360.726 177.775L360.448 178.258C360.366 178.117 360.25 177.21 360.209 176.968C356.639 168.179 350.067 167.211 341.581 166.442L341.567 167.2C340.204 166.871 339.976 166.897 338.657 167.247L338.529 167.437L337.165 168.453C336.259 170.945 336.849 174.013 336.945 176.724L336.955 177.722C337.078 179.338 337.238 180.82 337.122 182.44C337.148 182.768 337.127 183.075 337.252 183.338C337.325 184.447 337.414 185.533 337.41 186.644C329.777 183.578 328.558 182.968 322.18 177.708C304.671 177.383 287.025 177.882 269.501 177.664C266.881 177.631 264.053 177.583 261.443 177.68C258.854 179.188 249.087 189.745 245.923 192.634C245.394 182.321 245.755 169.083 245.759 158.617L245.741 97.9378Z" fill="#2a2a2a"/>
<path d="M335.333 139.035C339.841 137.183 345.014 138.109 348.6 141.409C352.185 144.71 353.536 149.788 352.066 154.434C350.594 159.08 346.565 162.454 341.734 163.088C340.624 163.233 339.503 163.23 338.396 163.078C333.569 162.417 329.562 159.021 328.116 154.368C326.671 149.715 328.049 144.646 331.65 141.365C332.733 140.38 333.978 139.591 335.333 139.035Z" fill="#E6EB2F"/>
<path d="M337.835 139.678C340.615 139.504 342.543 139.398 345.166 140.74C347.892 142.125 349.918 144.584 350.754 147.525C352.7 154.433 348.518 160.062 341.823 161.692C340.255 161.121 340.317 161.401 338.763 161.407C334.475 161.423 330.652 157.955 329.484 154.065C328.592 151.149 328.909 147.997 330.359 145.316C332.075 142.181 334.507 140.601 337.835 139.678Z" fill="#424311"/>
<path d="M245.741 97.9378C249.555 97.591 254.941 97.7551 258.854 97.7599L280.963 97.7659L338.645 97.7611C347.368 97.7604 356.509 97.9417 365.181 97.7918L365.195 152.629C365.198 160.86 365.362 169.62 365.241 177.81C363.75 177.719 362.181 177.534 360.726 177.775L360.448 178.258C360.366 178.117 360.25 177.21 360.209 176.968C361.725 176.959 362.931 176.942 364.451 176.822C364.195 172.969 364.34 169.114 364.313 165.256C364.163 143.068 364.627 120.78 364.277 98.6015L291.905 98.6363C277.03 98.6361 261.38 98.9041 246.568 98.6107L246.533 191.052C250.034 187.373 256.759 180.439 260.517 177.064L302.329 177.032L314.344 176.999C316.348 176.992 319.826 176.846 321.68 177.182L322.18 177.708C304.671 177.383 287.025 177.882 269.501 177.664C266.881 177.631 264.053 177.583 261.443 177.68C258.854 179.188 249.087 189.745 245.923 192.634C245.394 182.321 245.755 169.083 245.759 158.617L245.741 97.9378Z" fill="#111112"/>
<path d="M321.68 177.182C316.826 171.964 313.022 166.678 310.172 160.031C309.578 158.642 306.493 153.626 310.74 153.693C311.543 153.705 312.364 155.109 312.638 155.739C315.978 164.125 320.735 171.642 327.959 177.333L328.761 177.871C329.491 177.576 335.718 177.714 336.955 177.722C337.078 179.338 337.238 180.82 337.122 182.44C337.148 182.768 337.127 183.075 337.252 183.338C337.325 184.447 337.414 185.533 337.409 186.644C329.777 183.578 328.558 182.968 322.18 177.708L321.68 177.182Z" fill="#E6EB2F"/>
<path d="M328.761 177.871C329.491 177.576 335.718 177.714 336.955 177.722C337.078 179.338 337.238 180.82 337.122 182.44C333.753 180.994 331.72 179.989 328.761 177.871Z" fill="#2a2a2a"/>
<path d="M338.396 163.078C339.502 163.23 340.624 163.234 341.733 163.088C341.724 163.689 341.758 166.056 341.581 166.442L341.567 167.2C340.203 166.871 339.976 166.897 338.657 167.247L338.478 166.539C338.507 165.405 338.437 164.216 338.396 163.078Z" fill="#E6EB2F"/>
<path d="M327.959 177.333C329.74 176.874 334.543 176.978 336.945 176.724L336.955 177.722C335.718 177.714 329.491 177.576 328.761 177.871L327.959 177.333Z" fill="#111112"/>
<path d="M341.581 166.442C350.067 167.211 356.639 168.179 360.209 176.968C360.25 177.21 360.366 178.117 360.448 178.258C361.935 189.354 360.04 219.373 352.84 228.597C351.15 230.762 349.207 231.69 346.8 232.73C354.88 237.622 355.685 248.699 355.54 257.25C352.359 257.34 349.188 257.24 346.062 257.323C345.966 259.394 345.876 264.245 346.154 266.234C345.569 267.16 345.461 267.143 344.284 267.225C341.692 266.37 312.449 266.831 307.9 266.971C305.652 268.192 305.295 268.148 303.03 267.003C298.039 266.734 292.627 266.841 287.593 266.814C284.637 266.797 279.184 266.672 276.501 267.153C275.756 267.295 275.488 267.228 274.727 267.191L274.662 266.055C274.923 263.728 274.782 259.834 274.758 257.395C271.662 257.066 263.65 257.32 260.256 257.342C260.215 235.681 279.614 231.705 297.655 231.248C298.875 231.217 300.608 231.49 301.73 230.975L302.073 229.471C302.489 227.758 303.402 226.634 305.239 226.523C308.966 226.298 312.737 226.39 316.473 226.392L339.413 226.409C339.065 214.087 338.265 198.949 337.41 186.644C337.414 185.533 337.325 184.447 337.252 183.338C337.127 183.075 337.148 182.768 337.122 182.44C337.238 180.82 337.078 179.338 336.955 177.722L336.945 176.724C336.849 174.013 336.259 170.945 337.165 168.453L338.529 167.437L338.657 167.247C339.976 166.898 340.204 166.871 341.567 167.2L341.581 166.442Z" fill="#4A4A4A"/>
<path d="M260.256 257.342C260.215 235.681 279.614 231.705 297.655 231.248C298.875 231.217 300.608 231.49 301.73 230.975L302.073 229.471L302.008 231.233L302.034 232.536C303.373 232.541 308.183 232.326 308.959 233.034C308.654 238.823 308.695 249.927 308.918 255.853L308.886 256.015L308.855 257.18L308.901 257.335C308.898 259.645 309.017 263.907 308.587 266.026L308.183 266.527L307.9 266.971C305.652 268.192 305.295 268.148 303.03 267.003C298.039 266.734 292.627 266.841 287.593 266.814C284.637 266.797 279.184 266.672 276.501 267.153C275.756 267.295 275.488 267.228 274.727 267.191L274.662 266.055C274.923 263.728 274.782 259.834 274.758 257.395C271.662 257.066 263.65 257.32 260.256 257.342Z" fill="#4A4A4A"/>
<path d="M274.816 255.822C275.37 255.81 276.097 255.769 276.634 255.802C284.083 256.165 294.367 255.993 301.964 255.882L301.981 257.328C302 259.745 301.942 263.353 302.23 265.63L302.404 266.14L303.03 267.003C298.039 266.735 292.627 266.841 287.593 266.814C284.637 266.797 279.184 266.672 276.501 267.153C275.757 267.295 275.488 267.228 274.727 267.191L274.662 266.055C274.923 263.728 274.782 259.834 274.758 257.395L274.802 257.231L274.816 255.822Z" fill="#2a2a2a"/>
<path d="M276.634 255.802C284.083 256.165 294.367 255.993 301.964 255.882L301.981 257.328C293.572 257.282 285.163 257.284 276.755 257.335L276.726 257.17L276.634 255.802Z" fill="#4A4A4A"/>
<path d="M274.816 255.822C275.37 255.81 276.097 255.769 276.634 255.802L276.726 257.17L276.755 257.335C276.687 259.435 276.506 264.267 276.888 266.22L276.501 267.153C275.757 267.295 275.488 267.228 274.727 267.191L274.662 266.055C274.923 263.728 274.782 259.834 274.758 257.395L274.802 257.231L274.816 255.822Z" fill="#E6EB2F"/>
<path d="M274.816 255.822C275.37 255.81 276.097 255.769 276.634 255.802L276.726 257.17C275.914 257.383 275.626 257.306 274.802 257.231L274.816 255.822Z" fill="#E6EB2F"/>
<path d="M302.23 265.63L302.404 266.14L303.03 267.003C298.039 266.734 292.627 266.841 287.593 266.814C284.637 266.797 279.184 266.672 276.501 267.153L276.888 266.22C280.767 265.27 300.794 267.012 302.23 265.63Z" fill="#111112"/>
<path d="M302.034 232.536C303.373 232.541 308.183 232.326 308.959 233.034C308.654 238.823 308.695 249.927 308.918 255.853L308.886 256.015L308.855 257.18L308.901 257.335C308.898 259.645 309.017 263.907 308.587 266.026L308.183 266.527L307.9 266.971C305.652 268.192 305.295 268.148 303.03 267.003L302.404 266.14L302.23 265.63C301.942 263.353 302 259.745 301.981 257.327L301.964 255.882C302.189 254.705 302.112 249.883 302.109 248.488C302.119 243.171 302.095 237.854 302.034 232.536Z" fill="#E6EB2F"/>
<path d="M302.404 266.14C303.574 266.094 307.489 265.671 308.183 266.527L307.9 266.971C305.653 268.192 305.295 268.148 303.03 267.003L302.404 266.14Z" fill="#E6EB2F"/>
<path d="M260.256 257.342C260.215 235.681 279.614 231.705 297.655 231.248C298.875 231.217 300.608 231.49 301.73 230.975L302.073 229.471L302.008 231.233L302.034 232.536C302.095 237.854 302.119 243.171 302.109 248.488C302.112 249.883 302.189 254.705 301.964 255.882C301.737 254.084 301.848 249.583 301.848 247.577L301.846 232.519C285.105 232.244 262.753 235.023 261.624 255.904C264.827 255.916 271.884 256.141 274.816 255.822L274.802 257.231L274.758 257.395C271.662 257.066 263.65 257.32 260.256 257.342Z" fill="#4A4A4A"/>
<path d="M308.959 233.034C310.487 233.307 320.155 233.281 322.366 233.215C329.228 233.015 337.415 233.52 344.139 233.155C353.393 235.531 353.538 248.486 354.35 255.933C351.694 255.928 348.579 256.001 345.961 255.834L346.036 257.132L346.063 257.323C345.966 259.394 345.876 264.245 346.154 266.234C345.569 267.16 345.461 267.143 344.284 267.225C341.693 266.37 312.449 266.831 307.9 266.971L308.183 266.527L308.587 266.026C309.017 263.907 308.899 259.645 308.901 257.335L308.855 257.18L308.887 256.015L308.918 255.853C308.696 249.927 308.654 238.823 308.959 233.034Z" fill="#4A4A4A"/>
<path d="M308.918 255.853C318.789 256.204 328.899 255.73 338.795 255.911C340.523 255.943 342.512 255.943 344.226 255.817C344.755 255.819 345.446 255.802 345.961 255.834L346.036 257.132L346.063 257.323C345.966 259.394 345.876 264.245 346.154 266.234C345.569 267.16 345.461 267.143 344.284 267.225C341.693 266.37 312.449 266.831 307.9 266.971L308.183 266.527L308.587 266.026C309.017 263.907 308.899 259.645 308.901 257.335L308.855 257.18L308.887 256.015L308.918 255.853Z" fill="#2a2a2a"/>
<path d="M308.918 255.853C318.789 256.204 328.899 255.73 338.794 255.911C340.523 255.943 342.512 255.943 344.225 255.817L344.078 256.595L343.945 257.279C340.46 257.453 335.638 257.301 332.07 257.299L308.901 257.335L308.855 257.18L308.886 256.015L308.918 255.853Z" fill="#4A4A4A"/>
<path d="M308.587 266.026L333.001 266.029C334.686 266.026 342.65 265.922 343.902 266.162L344.284 267.225C341.693 266.369 312.449 266.831 307.9 266.971L308.183 266.527L308.587 266.026Z" fill="#111112"/>
<path d="M344.226 255.817C344.755 255.819 345.446 255.802 345.961 255.834L346.036 257.132L346.063 257.323C345.966 259.394 345.877 264.245 346.154 266.234C345.57 267.16 345.461 267.143 344.284 267.225L343.902 266.162C344.291 264.866 344.148 258.787 343.945 257.279L344.078 256.595L344.226 255.817Z" fill="#E6EB2F"/>
<path d="M344.226 255.817C344.755 255.819 345.446 255.802 345.961 255.834L346.036 257.132C344.902 257.444 344.62 257.68 344.078 256.595L344.226 255.817Z" fill="#E6EB2F"/>
<path d="M338.657 167.248C339.977 166.898 340.204 166.871 341.567 167.2L341.785 167.461L343.07 168.576C343.781 170.623 343.783 174.666 343.897 176.974L343.909 177.684L346.379 227.006L346.338 231.108C345.55 232.285 345.417 232.483 344.139 233.155C337.415 233.52 329.228 233.015 322.366 233.215C320.155 233.281 310.487 233.307 308.959 233.034C308.183 232.326 303.373 232.541 302.034 232.536L302.008 231.233L302.073 229.472C302.489 227.758 303.402 226.634 305.239 226.523C308.966 226.298 312.737 226.39 316.474 226.392L339.413 226.409C339.065 214.087 338.265 198.95 337.41 186.645C337.415 185.533 337.325 184.447 337.253 183.338C337.127 183.075 337.149 182.768 337.122 182.44C337.238 180.82 337.079 179.338 336.955 177.722L336.946 176.724C336.849 174.013 336.259 170.945 337.166 168.453L338.529 167.437L338.657 167.248Z" fill="#E6EB2F"/>
<path d="M302.008 231.233L332.469 231.265C336.264 231.265 340.02 231.26 343.812 231.395C344.736 231.429 344.603 230.663 346.338 231.108C345.55 232.285 345.417 232.483 344.139 233.155C337.415 233.52 329.228 233.015 322.366 233.215C320.155 233.281 310.487 233.307 308.959 233.034C308.183 232.326 303.373 232.541 302.034 232.536L302.008 231.233Z" fill="#E6EB2F"/>
<path d="M337.252 183.338L337.429 182.691C339.176 182.129 342.891 184.35 341.995 186.559C340.511 187.576 339.039 187.053 337.41 186.644C337.414 185.533 337.325 184.447 337.252 183.338Z" fill="#E6EB2F"/>
<path d="M338.657 167.248C339.976 166.898 340.204 166.871 341.567 167.2L341.784 167.461L341.596 168.46C341.61 169.965 341.816 171.081 340.264 171.822C338.292 171.512 338.582 170.057 338.596 168.459L338.529 167.437L338.657 167.248Z" fill="#E6EB2F"/>
<path d="M338.657 167.248C339.976 166.898 340.204 166.871 341.567 167.2L341.784 167.461L341.596 168.46L338.596 168.459L338.529 167.437L338.657 167.248Z" fill="#E6EB2F"/>
<path d="M341.581 166.442C350.068 167.211 356.639 168.179 360.209 176.968C360.25 177.21 360.366 178.117 360.449 178.258C361.935 189.354 360.04 219.373 352.84 228.596C351.15 230.762 349.207 231.69 346.8 232.73C354.88 237.622 355.685 248.699 355.54 257.25C352.359 257.34 349.188 257.24 346.063 257.323L346.036 257.132L345.961 255.834C348.579 256.001 351.694 255.928 354.35 255.933C353.538 248.486 353.393 235.531 344.139 233.155C345.417 232.483 345.55 232.285 346.338 231.108L346.379 227.006C346.686 228.587 346.618 229.382 346.529 230.941C350.379 229.063 352.054 227.562 353.698 223.509C357.874 213.207 358.423 201.463 358.834 190.481C358.967 186.93 359.325 180.69 358.107 177.575L357.874 176.678C356.54 177.319 345.545 177.164 343.897 176.974C343.783 174.666 343.781 170.623 343.07 168.576L341.784 167.461L341.567 167.2L341.581 166.442Z" fill="#4A4A4A"/>
<path d="M343.07 168.576C347.738 168.988 352.746 169.88 355.963 173.643C356.741 174.559 357.384 175.58 357.874 176.678C356.54 177.319 345.545 177.164 343.897 176.974C343.783 174.666 343.781 170.623 343.07 168.576Z" fill="#4A4A4A"/>
<path d="M168.151 266.053C172.648 265.951 177.171 266.195 181.7 266.029C182.215 265.456 182.09 265.188 182.236 264.271C182.224 265.601 182.182 266.988 182.263 268.308C182.125 267.66 182.059 267.491 181.817 266.87C179.843 266.64 170.294 266.848 167.911 266.846L168.151 266.053Z" fill="#111112"/>
<path d="M198.595 265.618L198.877 266.87C194.249 266.858 189.313 266.761 184.709 266.911L184.7 266.005C188.36 266.092 194.354 266.111 198.186 265.968C198.322 265.852 198.459 265.736 198.595 265.618Z" fill="#111112"/>
<path d="M158.021 162.037L192.372 162.033L203.209 162.033C205.557 162.033 211.022 161.72 212.804 163.02C215.958 165.29 215.74 170.117 215.346 173.651C216.647 173.975 221.631 173.821 223.174 173.793C222.989 178.208 223.102 182.685 223.088 187.106C223.085 188.161 223.098 189.387 223.2 190.427C221.525 190.402 216.943 190.286 215.377 190.522C215.466 192.004 215.472 193.466 215.455 194.946C215.402 199.509 213.574 201.98 208.791 202.083C203.164 202.202 197.508 202.058 191.876 202.09C190.691 202.094 186.473 202.008 185.531 202.199C185.558 201.991 185.727 201.399 185.787 201.163C186.493 201.004 189.42 201.049 190.296 201.051L201.153 201.079C214.466 201.133 214.306 201.595 214.287 188.543C214.261 183.631 214.263 178.718 214.292 173.806C214.214 171.743 214.45 169.398 214.16 167.354C214.091 166.862 213.497 165.419 213.295 164.834C212.263 164.08 211.592 163.566 210.274 163.384C207.291 162.972 203.668 163.139 200.629 163.142C194.637 163.169 188.646 163.166 182.655 163.132C176.73 163.175 170.806 163.178 164.882 163.144C163.371 163.142 161.711 163.165 160.213 163.14C156.383 163.076 152.662 163.141 152.291 167.918C152.105 170.319 152.236 172.785 152.229 175.204C152.287 182.031 152.145 188.867 152.258 195.692C152.272 196.5 152.464 197.457 152.628 198.251C153.897 199.877 154.682 200.746 156.832 200.905C160.102 201.144 163.8 201.135 167.088 201.079C171.329 201.006 175.915 201.197 180.107 201.045L180.277 202.199C178.915 202.015 175.405 202.096 173.885 202.099L162.168 202.118C156.518 202.126 151.401 202.804 151.105 195.49C150.897 186.347 151.022 176.27 151.274 167.095C151.377 163.328 154.608 162.13 158.021 162.037Z" fill="#E6EB2F"/>
<path d="M215.445 174.795C217.652 174.815 219.925 174.777 222.137 174.767L222.096 189.284L215.456 189.283C215.505 184.487 215.45 179.598 215.445 174.795Z" fill="#424311"/>
<path d="M204.152 168.504C204.827 168.297 205.561 168.476 206.065 168.97C206.569 169.463 206.763 170.193 206.571 170.872C206.378 171.551 205.83 172.071 205.142 172.227C204.131 172.455 203.12 171.844 202.854 170.842C202.588 169.84 203.161 168.808 204.152 168.504Z" fill="#E6E52F"/>
<path d="M179.857 201.91C182.004 197.763 184.982 198.362 187.203 202.062C187.125 202.367 186.906 203.133 186.872 203.402C186.409 204.538 186.326 204.598 185.51 205.55L195.457 243.674C197.387 251.029 199.278 258.739 201.341 266.031C201.426 266.28 201.653 267.029 201.78 267.201C201.875 268.175 201.89 268.542 201.312 269.296C199.605 269.843 199.224 268.105 198.877 266.87C194.249 266.858 189.313 266.761 184.709 266.911C184.625 268.376 184.724 269.516 182.801 269.451C182.239 268.813 182.425 269.176 182.263 268.308C182.125 267.66 182.059 267.491 181.817 266.87C179.843 266.64 170.294 266.848 167.911 266.846C167.588 268.173 167.362 269.739 165.597 269.296C164.844 268.409 165.016 268.078 165.144 267.003L165.497 266.026C171.056 246.253 176.154 225.401 181.402 205.458C180.591 204.612 180.506 204.492 180.077 203.402L179.857 201.91Z" fill="#E6EB2F"/>
<path d="M182.153 212.514C182.474 229.658 181.883 247.147 182.236 264.272C182.224 265.601 182.182 266.988 182.263 268.308C182.125 267.66 182.059 267.491 181.817 266.87C179.843 266.64 170.294 266.848 167.911 266.846L168.151 266.053C169.662 261.067 171.149 254.492 172.497 249.337L182.153 212.514Z" fill="#2a2a2a"/>
<path d="M184.7 266.005C184.589 263.206 184.589 260.01 184.659 257.219C185.031 242.533 184.11 227.308 184.756 212.673L198.595 265.618L198.877 266.87C194.249 266.858 189.313 266.761 184.709 266.911L184.7 266.005Z" fill="#2a2a2a"/>
<path d="M179.857 201.91C182.004 197.763 184.982 198.362 187.203 202.062C187.125 202.367 186.906 203.133 186.872 203.402C185.885 203.539 185.743 203.37 185.25 203.938C185.326 204.431 185.398 204.857 185.335 205.354L184.944 205.608L184.808 203.447C184.137 203.445 183.466 203.426 182.796 203.389C182.118 202.817 182.329 203.07 182.149 201.983L181.888 201.992C181.16 201.881 180.592 201.913 179.857 201.91Z" fill="#E6EB2F"/>
<path d="M182.149 201.983C183.213 201.381 182.77 201.456 183.93 201.473C184.757 202.009 184.435 201.661 184.881 202.597L184.808 203.447C184.137 203.445 183.466 203.426 182.795 203.389C182.118 202.817 182.329 203.07 182.149 201.983Z" fill="#E6E52F"/>
<path d="M179.857 201.91C180.592 201.913 181.16 201.881 181.888 201.992L182.149 201.983C182.329 203.07 182.118 202.817 182.796 203.39C183.466 203.426 184.137 203.445 184.808 203.448L184.944 205.608L184.68 205.761C184.669 207.849 184.709 210.169 184.585 212.236C184.257 210.841 183.927 209.152 183.406 207.844L182.197 207.049C181.845 205.765 182.298 206.203 181.402 205.458C180.591 204.613 180.506 204.492 180.077 203.402L179.857 201.91Z" fill="#E6EB2F"/>
<path d="M182.149 201.983C182.329 203.07 182.118 202.817 182.796 203.389C183.466 203.426 184.137 203.445 184.808 203.447L184.944 205.608L184.68 205.761C183.165 206.147 184.519 206.121 183.272 206.498C182.188 205.777 181.936 203.232 181.888 201.992L182.149 201.983Z" fill="#E6EB2F"/>
<path d="M182.197 207.049L183.406 207.844L182.171 211.789L182.197 207.049Z" fill="#E6EB2F"/>
<path d="M274.662 266.055L274.727 267.191C272.8 266.65 251.521 266.843 247.942 266.843L218.572 266.846C213.341 266.848 207.116 266.689 201.961 266.945L201.78 267.201C201.653 267.029 201.426 266.28 201.341 266.031C209.043 266.232 217.623 266.041 225.435 266.041L274.662 266.055Z" fill="#111112"/>
<path d="M346.154 266.234C348.364 265.782 372.365 265.937 374.96 266.406L375.154 266.553C372.642 266.95 368.686 266.841 366.017 266.843L351.177 266.867C350.014 266.88 344.678 267.259 344.284 267.225C345.461 267.143 345.57 267.16 346.154 266.234Z" fill="#111112"/>
<path d="M165.497 266.026L165.144 267.003C161.787 266 137.917 267.793 136.741 266.343L137.061 266.432C137.958 265.797 162.734 266.031 165.497 266.026Z" fill="#111112"/>
<line x1="267" y1="120" x2="344" y2="120" stroke="#E6EB2F" stroke-width="2" stroke-linecap="round"/>
<path d="M267 130H324" stroke="#4A4A4A" stroke-width="2" stroke-linecap="round"/>
<path d="M267 139H331.5" stroke="#4A4A4A" stroke-width="2" stroke-linecap="round"/>
</g>
<defs>
<clipPath id="clip0_22_93">
<rect width="511" height="383" fill="white"/>
</clipPath>
</defs>
</svg>
