<svg width="511" height="383" viewBox="0 0 511 383" fill="none" xmlns="http://www.w3.org/2000/svg">
<g clip-path="url(#clip0_22_126)">
<path d="M511 0H0V383H511V0Z" fill="#1e1e1e"/>
<path d="M135.048 68.1166C139.971 67.8803 146.701 68.0762 151.725 68.0771L183.907 68.0822L282.596 68.0817L346.633 68.078L366.149 68.0664C370.287 68.065 374.906 67.9126 378.923 68.3566C389.424 69.5165 398.529 79.4622 398.734 90.038C398.82 94.453 398.732 98.8196 398.729 103.206L398.732 129.912V212.868L398.736 268.998L398.739 286.029C398.736 289.389 398.88 293.144 398.518 296.462C397.723 303.77 392.472 310.547 386.006 313.835C382.502 315.617 379.846 316.094 376.021 316.301L206.216 316.27L156.726 316.266L142.022 316.289C139.381 316.298 135.538 316.419 132.995 316.147C128.548 315.657 124.352 313.838 120.955 310.929C111.112 302.513 112.563 293.774 112.589 282.135L112.607 259.162L112.602 184.413L112.608 120.738L112.586 100.111C112.584 96.7184 112.431 91.6773 112.76 88.418C113.245 84.0182 115.055 79.8693 117.949 76.5197C122.824 70.8495 127.733 68.7007 135.048 68.1166Z" fill="#2a2a2a"/>
<path d="M133.596 69.0439C137.61 68.7592 144.044 68.9737 148.201 68.9783L175.452 68.9827L262.667 68.9758L340.752 68.9851L365.386 68.9774C369.455 68.9755 374.009 68.7934 378.029 69.0501C385.462 69.6847 392.525 74.8253 395.774 81.4388C398.72 87.4426 398.134 94.6362 398.125 101.142V120.211L398.123 185.372L398.125 259.978V283.167C398.125 291.878 399.222 299.741 393.234 306.962C388.928 312.155 384.418 314.625 377.722 315.359C376.377 315.708 370.882 315.513 369.297 315.513L351.396 315.503L288.38 315.501L183.938 315.506H151.504C145.821 315.513 139.758 315.622 134.11 315.42C129.58 315.104 125.454 313.554 121.93 310.757C112.201 303.033 113.214 293.994 113.231 282.911L113.236 262.478L113.232 193.29L113.23 123.047L113.231 101.494C113.233 92.6584 112.276 84.5072 118.253 77.1916C122.075 72.5364 127.599 69.6027 133.596 69.0439Z" fill="#2a2a2a"/>
<path d="M215.746 82.073L272.614 82.0678L288.561 82.0548C291.828 82.0504 295.411 81.9579 298.636 82.3181C301.015 82.5837 303.155 83.8163 304.863 85.4179C307.621 88.0024 308.667 90.9377 308.69 94.6431C308.736 101.574 308.701 108.542 308.692 115.475L308.697 153.879L308.701 175.864C308.701 181.686 309.782 189.519 305.39 193.934C302.546 196.794 299.681 197.619 295.771 197.684L238.321 197.689L221.85 197.707C216.608 197.712 211.096 198.472 206.937 194.828C204.489 192.684 202.834 189.709 202.744 186.433C202.564 179.944 202.657 173.44 202.665 166.955L202.665 129.901L202.662 104.322C202.663 98.7269 201.622 90.7862 205.509 86.3513C208.379 83.0765 211.595 82.2674 215.746 82.073Z" fill="#E6EB2F"/>
<path d="M215.534 83.4562C220.818 83.2631 227.334 83.4451 232.697 83.4453L266.385 83.4455L286.697 83.433C290.585 83.4316 294.702 83.337 298.571 83.6614C300.021 83.7829 302.182 84.9456 303.32 85.8485C305.381 87.4683 306.729 89.8285 307.077 92.4269C307.475 95.6232 307.279 103.476 307.282 107.089L307.286 134.908L307.284 168.51C307.282 174.41 307.389 180.341 307.145 186.231C306.891 192.4 302.34 195.7 296.556 196.25L239.657 196.234L223.156 196.271C218.138 196.288 211.932 197.101 207.922 193.706C205.493 191.65 204.28 189.29 204.181 186.134C203.996 180.25 204.085 174.341 204.087 168.455L204.091 133.912L204.091 106.71C204.082 96.6686 201.58 84.1363 215.534 83.4562Z" fill="#2a2a2a"/>
<path d="M217.578 90.4122L268.804 90.4584L284.711 90.4535C288.621 90.4489 299.549 89.0905 300.042 94.5434C300.497 99.5746 300.26 105.407 300.276 110.55L300.304 127.645C300.306 130.617 300.36 133.594 300.255 136.565C300.132 140.071 298.833 141.751 295.432 142.581C291.198 142.755 285.986 142.63 281.704 142.63L255.653 142.63L230.731 142.63C227.055 142.629 216.76 143.19 213.379 141.663C210.505 140.364 211.06 133.888 211.06 130.716L211.071 117.281L211.058 103.219C211.059 96.6597 209.424 91.1641 217.578 90.4122Z" fill="#4A4A4A"/>
<path d="M253.708 96.4601C264.596 95.3681 274.292 103.343 275.324 114.237C276.355 125.13 268.325 134.783 257.428 135.754C246.614 136.717 237.053 128.765 236.03 117.957C235.007 107.149 242.905 97.5436 253.708 96.4601Z" fill="#E6EB2F"/>
<path d="M254.103 97.836C264.196 96.9684 273.082 104.456 273.934 114.551C274.789 124.646 267.289 133.519 257.193 134.359C247.116 135.198 238.263 127.717 237.411 117.64C236.559 107.564 244.028 98.702 254.103 97.836Z" fill="#2a2a2a"/>
<path d="M250.008 107.544C253.65 109.255 261.357 113.909 265.103 116.116C263.59 117.091 261.176 118.333 259.545 119.237C256.368 121.032 253.178 122.808 249.98 124.564L250.008 107.544Z" fill="#E6EB2F"/>
<path d="M218.823 154.279C232.586 153.808 248.536 154.205 262.454 154.201L282.064 154.187C284.125 154.186 291.019 153.782 293.075 154.752C294.251 155.307 293.526 156.997 292.59 157.94C278.916 158.311 263.576 157.968 249.78 157.963L232.337 157.95C231.073 157.958 212.168 159.402 218.823 154.279Z" fill="#4A4A4A"/>
<path d="M218.763 163.77C228.469 163.4 240.197 163.706 250.03 163.705L264.566 163.707C266.343 163.708 272.371 163.383 274.062 164.208C275.319 164.823 274.536 166.431 273.528 167.381C271.42 167.58 267.642 167.473 265.428 167.474L250.227 167.478L230.936 167.476C228.644 167.475 219.569 167.777 218.1 166.892C217.134 165.553 217.701 164.772 218.763 163.77Z" fill="#E6EB2F"/>
<path d="M326.005 92.0423C329.321 91.866 333.303 91.9666 336.661 91.9684L355.563 91.9801L367.943 91.9549C371.816 91.9419 376.767 91.414 380.104 93.607C385.327 97.0393 384.442 102.656 384.442 108.008L384.444 124.068V153.862C384.444 159.126 384.54 164.544 384.333 169.804C384.166 174.021 380.143 177.397 376.096 178.131C372.78 178.415 368.774 178.316 365.394 178.319L349.001 178.325L334.783 178.323C328.549 178.32 319.439 179.387 317.508 170.731C316.932 168.147 317.243 163.664 317.241 160.874L317.236 141.389L317.238 115.123C317.238 110.426 317.141 105.698 317.357 101.008C317.591 95.9103 321.244 92.9127 326.005 92.0423Z" fill="#2a2a2a"/>
<path d="M327.543 92.7368C336.965 92.4657 346.975 92.8835 356.469 92.7115C362.543 92.7694 368.544 92.5805 374.623 92.8142C378.84 92.9764 383.043 95.7528 383.54 100.211C383.91 103.522 383.787 107.171 383.791 110.522L383.796 129.134V154.221C383.794 158.859 383.856 163.466 383.643 168.101C383.373 173.892 380.492 176.787 374.806 177.474C361.729 177.804 348.434 177.24 335.341 177.507C332.432 177.535 329.562 177.515 326.658 177.385C315.935 176.902 317.898 164.514 317.896 156.945L317.898 135.545L317.893 114.212C317.886 109.912 317.838 105.698 318.075 101.401C318.384 95.7658 322.122 93.1058 327.543 92.7368Z" fill="#2a2a2a"/>
<path d="M328.74 106.647C339.66 106.147 351.225 106.968 362.199 106.597C364.15 106.531 368.093 106.465 369.648 107.517C370.14 108.74 369.783 109.724 368.551 110.226C367.782 110.299 367.011 110.351 366.239 110.384C355.1 110.876 343.508 110.189 332.33 110.48C330.903 110.517 328.565 110.531 327.483 109.541C326.895 108.019 327.418 107.402 328.74 106.647Z" fill="#E6EB2F"/>
<path d="M327.573 125.673C342.003 125.066 357.164 125.981 371.663 125.604C372.764 125.575 373.877 125.511 374.516 126.454C374.623 127.375 374.532 127.388 374.105 128.193C370.954 129.044 334.374 128.227 328.301 128.369C327.834 128.38 327.527 127.947 327.26 127.615C327.123 126.704 327.257 126.524 327.573 125.673Z" fill="#4A4A4A"/>
<path d="M328.008 116.153C331.828 115.968 358.202 115.87 359.733 116.396C360.725 117.416 360.254 118.052 359.331 118.869C355.741 119.006 328.698 119.379 327.385 118.444C327.099 118.24 327.125 118.033 327.048 117.72C327.236 116.843 327.38 116.775 328.008 116.153Z" fill="#4A4A4A"/>
<path d="M135.793 92.0349C138.962 91.8671 142.896 91.9721 146.111 91.974L164.718 91.9847L177.927 91.9561C184.235 91.9398 191.698 91.1798 193.861 99.5871C194.421 101.765 194.117 106.351 194.118 108.754L194.122 126.171L194.121 154.009C194.12 158.858 194.099 163.688 194.05 168.536C193.998 173.694 190.718 177.111 185.708 178.194C184 178.414 180.168 178.32 178.332 178.321L164.562 178.324L146.416 178.319C142.743 178.317 139.072 178.357 135.398 178.122C131.785 177.892 127.595 174.195 127.114 170.579C126.782 168.083 126.924 164.818 126.923 162.249L126.918 145.578L126.92 116.258C126.922 111.11 126.811 105.924 127.055 100.786C127.293 95.7844 131.116 92.8014 135.793 92.0349Z" fill="#2a2a2a"/>
<path d="M136.523 92.7663C139.471 92.6102 143.412 92.7133 146.445 92.7122L164.315 92.7029L177.462 92.7015C180.191 92.7033 182.828 92.6796 185.56 92.8855C189.018 93.1457 192.778 96.4744 193.171 99.9584C193.583 103.611 193.442 107.652 193.445 111.374L193.451 131.082L193.447 155.203C193.445 159.659 193.511 164.055 193.281 168.508C193.016 173.622 190.044 176.874 184.871 177.454C175.207 177.687 165.209 177.364 155.509 177.508C149.336 177.6 142.769 177.548 136.582 177.415C135.25 177.386 132.974 176.983 131.904 176.199C129.785 174.648 128.006 172.476 127.787 169.729C127.448 165.484 127.498 160.99 127.496 156.722L127.499 136.288L127.495 115.059C127.486 110.434 127.438 105.958 127.737 101.34C128.078 96.0787 131.356 93.3267 136.523 92.7663Z" fill="#2a2a2a"/>
<path d="M137.871 106.666L138.078 106.654C145.489 106.284 156.227 106.6 163.804 106.59L175.804 106.58C177.742 106.58 182.652 106.186 183.972 107.372C184.662 108.678 184.063 109.573 182.982 110.286C168.612 111.002 153.341 110.121 138.909 110.332C138.178 110.343 137.667 110.07 137.129 109.61C136.359 108.247 136.754 107.524 137.871 106.666Z" fill="#4A4A4A"/>
<path d="M137.611 125.658C144.506 125.35 153.125 125.663 160.153 125.603C165.077 125.561 174.081 125.357 178.741 125.725C179.412 126.217 179.178 125.905 179.455 126.701C179.35 127.621 179.32 127.582 178.785 128.372C174.822 128.658 139.505 128.765 137.769 128.236C137.159 128.05 137.005 127.784 136.717 127.248C136.932 126.207 136.84 126.549 137.611 125.658Z" fill="#4A4A4A"/>
<path d="M137.162 116.189C141.052 116.002 172.554 115.499 174.217 116.475C174.493 116.637 174.609 116.978 174.654 117.281C174.745 117.893 174.454 118.365 174.092 118.806C170.876 119.044 139.921 119.239 137.885 118.703C137.264 118.539 137.105 118.25 136.775 117.732C136.738 116.876 136.738 116.939 137.162 116.189Z" fill="#E6EB2F"/>
<path d="M345.601 257.431C356.88 257.159 366.248 266.075 366.539 277.353C366.827 288.632 357.928 298.014 346.647 298.321C335.345 298.628 325.937 289.705 325.647 278.401C325.359 267.097 334.297 257.703 345.601 257.431Z" fill="#4A4A4A"/>
<path d="M337.66 267.913C341.896 267.904 350.509 267.622 354.972 268.201C355.342 268.25 356.127 269.288 356.243 269.851C356.624 271.668 355.628 273.192 354.775 274.614C356.225 276.58 356.227 277.019 356.13 279.491C356.02 282.247 356.843 285.158 354.257 286.836C351.192 286.882 338.791 287.642 336.9 286.095C336.4 285.688 336.275 284.868 336.201 284.25C335.929 281.94 335.55 276.949 337.051 275.048C337.097 274.99 337.144 274.935 337.19 274.879C337.146 274.079 336.842 274.049 336.128 273.273C336.084 271.066 335.436 268.996 337.66 267.913Z" fill="#E6EB2F"/>
<path d="M337.648 275.497C340.422 275.404 352.821 275.188 354.624 275.943C355.53 277.077 355.381 284.477 354.566 285.872C352.184 286.02 339.07 286.283 337.63 285.572C336.633 284.203 336.628 277.114 337.648 275.497Z" fill="#4A4A4A"/>
<path d="M345.244 268.696C345.883 268.619 346.08 268.554 346.717 268.67C349.916 269.205 356.183 267.095 355.156 272.188C354.689 274.509 347.124 273.424 345.03 273.659L343.592 273.68C343.936 272.286 344.735 270.06 345.244 268.696Z" fill="#4A4A4A"/>
<path d="M345.244 268.696C345.883 268.619 346.08 268.554 346.717 268.67C346.197 270.322 345.685 272.06 345.03 273.659L343.592 273.68C343.936 272.286 344.735 270.06 345.244 268.696Z" fill="#4A4A4A"/>
<path d="M340.495 268.608C342.112 268.433 343.055 269.13 345.244 268.696C344.735 270.06 343.936 272.286 343.592 273.68C342.5 273.45 341.466 273.536 340.369 273.636L338.947 273.729L337.878 273.508C337.269 273.09 337.109 272.49 336.958 271.803C336.187 268.338 338.747 269.144 340.495 268.608Z" fill="#4A4A4A"/>
<path d="M340.495 268.608C340.007 270.046 339.156 272.314 338.947 273.729L337.878 273.508C337.269 273.09 337.109 272.49 336.958 271.803C336.187 268.338 338.747 269.144 340.495 268.608Z" fill="#4A4A4A"/>
<path d="M340.494 268.608L341.445 268.835C341.977 269.879 340.764 272.337 340.369 273.636L338.947 273.729C339.156 272.314 340.006 270.046 340.494 268.608Z" fill="#4A4A4A"/>
<path d="M254.47 257.427C265.746 256.76 275.431 265.35 276.118 276.624C276.804 287.9 268.235 297.601 256.961 298.309C245.656 299.02 235.922 290.421 235.233 279.117C234.544 267.811 243.163 258.094 254.47 257.427Z" fill="#4A4A4A"/>
<path d="M257.416 278.55C259.277 278.536 263.764 277.825 264.819 279.245C265.888 280.683 266.02 285.37 264.556 286.678C259.863 286.715 255.522 288.458 256.282 281.838C256.487 280.074 255.955 279.909 257.416 278.55Z" fill="#E6EB2F"/>
<path d="M257.43 279.261C263.952 278.922 265.983 278.13 264.561 285.92C262.746 285.923 258.927 286.573 257.6 285.516C256.626 284.742 256.735 280.223 257.43 279.261Z" fill="#4A4A4A"/>
<path d="M246.141 279.268C247.636 278.06 253.392 278.009 254.802 279.312C255.107 280.725 255.183 284.661 254.628 286.053C252.82 286.952 250.111 287.022 248.121 286.761C244.885 286.343 245.547 281.55 246.141 279.268Z" fill="#4A4A4A"/>
<path d="M246.141 279.268L246.678 279.454C245.613 287.175 247.143 286.42 254.221 285.879C254.366 283.708 254.454 281.624 254.268 279.454L254.802 279.312C255.107 280.725 255.183 284.661 254.628 286.053C252.82 286.952 250.111 287.022 248.121 286.761C244.885 286.343 245.547 281.55 246.141 279.268Z" fill="#E6EB2F"/>
<path d="M246.141 279.268C247.636 278.06 253.392 278.009 254.802 279.312L254.268 279.454C252.941 279.066 248.01 279.089 246.678 279.454L246.141 279.268Z" fill="#E6EB2F"/>
<path d="M246.938 269.063C248.69 269.058 253.053 268.473 254.166 269.558C255.486 270.845 255.483 275.711 254.059 277.144C247.611 277.144 245.077 278.936 245.885 270.731C245.972 269.851 246.324 269.59 246.938 269.063Z" fill="#E6EB2F"/>
<path d="M246.825 269.748C249.271 269.639 251.721 269.651 254.166 269.781C254.382 271.382 254.821 275.378 253.766 276.556C252.012 276.615 249.158 277.077 247.624 276.45C245.933 275.755 246.258 271.126 246.825 269.748Z" fill="#4A4A4A"/>
<path d="M257.625 269.061C259.252 269.03 264.013 268.635 265.01 269.695C265.809 271.34 266.104 275.941 264.313 277.123C262.612 277.174 257.779 277.632 256.712 276.443C255.964 274.702 256.255 272.558 256.445 270.696C256.547 269.693 256.896 269.572 257.625 269.061Z" fill="#E6EB2F"/>
<path d="M257.221 269.739C263.567 269.57 266.287 268.357 264.542 276.491C257.732 277.544 255.89 276.684 257.221 269.739Z" fill="#4A4A4A"/>
<path d="M164.229 257.441C175.459 256.878 185.039 265.48 185.683 276.707C186.327 287.932 177.795 297.575 166.575 298.3C155.238 299.037 145.472 290.395 144.821 279.052C144.17 267.711 152.882 258.008 164.229 257.441Z" fill="#4A4A4A"/>
<path d="M161.836 286.566C154.033 283.779 154.261 272.159 162.047 269.323C164.585 268.407 167.388 268.568 169.806 269.768C177.02 273.415 176.245 283.998 169.603 286.455L170.357 287.596C170.416 288.704 170.571 288.233 169.951 289.075C167.944 289.963 161.467 290.473 160.564 288.069C160.979 286.912 160.666 287.457 161.836 286.566Z" fill="#E6EB2F"/>
<path d="M164.232 269.926C168.742 269.217 172.964 272.32 173.63 276.837C174.296 281.353 171.151 285.545 166.63 286.167C162.169 286.782 158.045 283.689 157.387 279.234C156.73 274.779 159.784 270.625 164.232 269.926Z" fill="#4A4A4A"/>
<path d="M176.738 267.117L177.399 267.491L177.485 268.113C176.783 269.486 175.679 270.269 174.501 271.302L173.883 270.971L173.753 270.418C174.372 269.109 175.644 268.131 176.738 267.117Z" fill="#E6EB2F"/>
<path d="M164.885 262C165.825 262.337 165.45 262.068 166.075 262.807C166.475 264.5 166.218 265.793 166.025 267.506L165.284 267.271C164.296 265.947 164.75 263.732 164.885 262Z" fill="#E6EB2F"/>
<path d="M153.5 267.107C155.519 267.704 157.108 269.313 157.239 271.451C155.472 270.909 153.588 269.047 153.5 267.107Z" fill="#E6EB2F"/>
<path d="M309.879 277.191C311.306 277.214 311.873 276.912 313.293 277.244C313.899 277.751 313.709 277.556 313.846 278.58C312.403 278.534 311.041 278.991 309.965 278.157L309.879 277.191Z" fill="#E6EB2F"/>
<path d="M219.433 277.191C220.854 277.237 221.337 276.97 222.816 277.233C223.502 277.739 223.291 277.472 223.466 278.545C222.418 278.559 220.528 278.899 219.708 278.329C219.438 278.141 219.481 277.614 219.433 277.191Z" fill="#E6EB2F"/>
<path d="M287.037 277.167C288.547 277.219 289.785 276.724 290.873 277.597L290.963 278.562C289.857 278.541 288.138 278.91 287.311 278.341C287.009 278.132 287.081 277.648 287.037 277.167Z" fill="#E6EB2F"/>
<path d="M211.793 277.237C213.744 277.091 215.359 276.454 215.956 278.529C214.939 278.606 212.945 278.899 212.145 278.341C211.843 278.129 211.874 277.693 211.793 277.237Z" fill="#E6EB2F"/>
<path d="M279.441 277.181C281.477 277.237 283.036 276.324 283.421 278.562C281.96 278.534 280.603 279.015 279.525 278.16L279.441 277.181Z" fill="#E6EB2F"/>
<path d="M189.021 277.179C190.541 277.226 191.727 276.735 192.851 277.597L192.964 278.578C191.84 278.543 190.179 278.896 189.332 278.334C188.991 278.108 189.076 277.716 189.021 277.179Z" fill="#E6EB2F"/>
<path d="M196.612 277.2C197.688 277.191 199.197 276.898 200.097 277.349C200.5 277.551 200.468 277.974 200.615 278.55C199.526 278.543 197.758 278.899 196.909 278.343C196.611 278.148 196.665 277.658 196.612 277.2Z" fill="#E6EB2F"/>
<path d="M302.284 277.188C303.704 277.219 304.185 276.94 305.634 277.249C306.26 277.746 306.062 277.535 306.22 278.562C304.747 278.531 303.504 279.005 302.398 278.178L302.284 277.188Z" fill="#E6EB2F"/>
<path d="M294.663 277.2C296.066 277.219 296.524 276.956 297.969 277.24C298.615 277.742 298.41 277.518 298.594 278.55C297.163 278.529 295.82 279.003 294.76 278.181L294.663 277.2Z" fill="#E6EB2F"/>
<path d="M204.264 277.209C205.681 277.223 206.132 276.944 207.581 277.244C208.209 277.748 208.01 277.539 208.173 278.573C206.186 278.52 204.494 279.431 204.264 277.209Z" fill="#E6EB2F"/>
</g>
<defs>
<clipPath id="clip0_22_126">
<rect width="511" height="383" fill="white"/>
</clipPath>
</defs>
</svg>
